# xmcd
#
# Track frame offsets: 
#        150
#        23187
#        43312
#        57620
#        76927
#        93310
#        113610
#        136457
#        155802
#        183220
#        197715
#
# Disc length: 3124 seconds
#
# Revision: 4
# Processed by: cddbd v1.5.2PL0 Copyright (c) Steve Scherf et al.
# Submitted via: ExactAudioCopy v0.99pb5
#
DISCID=940c320b
DTITLE=Son Seals - Living In The Danger Zone
DYEAR=1991
DGENRE=Blues
TTITLE0=Frigidaire Woman
TTITLE1=I Can't Loose The Blues
TTITLE2=Woman In Black
TTITLE3=Tell It To Another Fool
TTITLE4=Ain't That Some Shame
TTITLE5=Arkansas Woman
TTITLE6=Danger Zone
TTITLE7=Last Four Nickels
TTITLE8=My Time Now
TTITLE9=Bad Axe
TTITLE10=My Life
EXTD=YEAR: 1991
EXTT0=
EXTT1=
EXTT2=
EXTT3=
EXTT4=
EXTT5=
EXTT6=
EXTT7=
EXTT8=
EXTT9=
EXTT10=
PLAYORDER=
